<svg width="200" height="32" viewBox="0 0 200 32" fill="none" xmlns="http://www.w3.org/2000/svg">
<path d="M55.3683 21.0816V10.957H59.1651C59.9429 10.957 60.5955 11.0921 61.1228 11.3623C61.6534 11.6326 62.0538 12.0116 62.3241 12.4994C62.5976 12.9839 62.7344 13.5491 62.7344 14.1951C62.7344 14.8443 62.596 15.4079 62.3192 15.8858C62.0456 16.3604 61.6419 16.7279 61.108 16.9882C60.574 17.2453 59.9182 17.3738 59.1404 17.3738H56.4362V15.8512H58.8932C59.348 15.8512 59.7204 15.7886 60.0105 15.6633C60.3005 15.5348 60.5147 15.3486 60.6531 15.1047C60.7949 14.8575 60.8657 14.5543 60.8657 14.1951C60.8657 13.8358 60.7949 13.5293 60.6531 13.2755C60.5114 13.0185 60.2955 12.824 60.0055 12.6922C59.7155 12.5571 59.3414 12.4895 58.8833 12.4895H57.2024V21.0816H55.3683ZM60.5988 16.4939L63.1052 21.0816H61.0585L58.5966 16.4939H60.5988ZM67.5965 21.2299C66.8352 21.2299 66.1777 21.0717 65.624 20.7553C65.0736 20.4356 64.6501 19.9841 64.3535 19.4008C64.0569 18.8141 63.9085 18.1236 63.9085 17.3294C63.9085 16.5483 64.0569 15.8627 64.3535 15.2728C64.6534 14.6795 65.072 14.2181 65.6092 13.8886C66.1464 13.5557 66.7775 13.3892 67.5026 13.3892C67.9706 13.3892 68.4122 13.465 68.8275 13.6167C69.2461 13.765 69.6152 13.9957 69.9349 14.3088C70.2579 14.6219 70.5116 15.0207 70.6962 15.5051C70.8808 15.9863 70.9731 16.5598 70.9731 17.2255V17.7743H64.749V16.568H69.2576C69.2543 16.2253 69.1801 15.9204 69.0351 15.6534C68.8901 15.3832 68.6874 15.1706 68.4271 15.0157C68.17 14.8608 67.8701 14.7834 67.5273 14.7834C67.1615 14.7834 66.8401 14.8723 66.5633 15.0503C66.2864 15.225 66.0706 15.4557 65.9157 15.7424C65.7641 16.0259 65.6866 16.3373 65.6833 16.6768V17.7298C65.6833 18.1714 65.7641 18.5504 65.9256 18.8668C66.0871 19.1799 66.3128 19.4205 66.6028 19.5886C66.8929 19.7534 67.2323 19.8358 67.6212 19.8358C67.8816 19.8358 68.1173 19.7995 68.3282 19.727C68.5391 19.6512 68.722 19.5408 68.8769 19.3958C69.0318 19.2508 69.1488 19.0712 69.2279 18.857L70.8989 19.0448C70.7934 19.4864 70.5924 19.8721 70.2958 20.2016C70.0024 20.5279 69.6267 20.7817 69.1686 20.963C68.7105 21.1409 68.1865 21.2299 67.5965 21.2299ZM74.6722 21.2349C74.191 21.2349 73.7576 21.1492 73.372 20.9778C72.9897 20.8031 72.6865 20.546 72.4623 20.2066C72.2415 19.8671 72.1311 19.4485 72.1311 18.9509C72.1311 18.5224 72.2102 18.1681 72.3684 17.888C72.5266 17.6078 72.7425 17.3837 73.016 17.2156C73.2896 17.0476 73.5977 16.9207 73.9405 16.835C74.2866 16.746 74.6441 16.6817 75.0133 16.6422C75.4582 16.596 75.8191 16.5548 76.0959 16.5186C76.3728 16.479 76.5738 16.4197 76.6991 16.3406C76.8276 16.2582 76.8919 16.1313 76.8919 15.96V15.9303C76.8919 15.5579 76.7815 15.2695 76.5606 15.0652C76.3398 14.8608 76.0218 14.7586 75.6065 14.7586C75.1682 14.7586 74.8205 14.8542 74.5634 15.0454C74.3096 15.2365 74.1382 15.4623 74.0493 15.7227L72.3783 15.4854C72.5101 15.024 72.7276 14.6383 73.0309 14.3285C73.3341 14.0154 73.7048 13.7814 74.1432 13.6265C74.5815 13.4683 75.066 13.3892 75.5966 13.3892C75.9625 13.3892 76.3266 13.4321 76.6892 13.5178C77.0517 13.6035 77.3829 13.7452 77.6829 13.9429C77.9828 14.1374 78.2234 14.4027 78.4046 14.7389C78.5892 15.075 78.6815 15.4953 78.6815 15.9995V21.0816H76.9611V20.0385H76.9018C76.793 20.2494 76.6397 20.4472 76.442 20.6317C76.2475 20.813 76.002 20.9597 75.7054 21.0717C75.4121 21.1805 75.0677 21.2349 74.6722 21.2349ZM75.1369 19.9198C75.4961 19.9198 75.8076 19.849 76.0712 19.7073C76.3349 19.5622 76.5376 19.3711 76.6793 19.1338C76.8243 18.8965 76.8968 18.6378 76.8968 18.3576V17.4628C76.8408 17.509 76.7452 17.5518 76.6101 17.5914C76.4782 17.6309 76.3299 17.6655 76.1651 17.6952C76.0004 17.7248 75.8372 17.7512 75.6757 17.7743C75.5142 17.7974 75.3742 17.8171 75.2555 17.8336C74.9886 17.8699 74.7496 17.9292 74.5387 18.0116C74.3278 18.094 74.1613 18.2093 74.0394 18.3576C73.9174 18.5027 73.8565 18.6905 73.8565 18.9212C73.8565 19.2508 73.9767 19.4996 74.2173 19.6677C74.4579 19.8358 74.7644 19.9198 75.1369 19.9198ZM83.2989 21.2151C82.7023 21.2151 82.1684 21.0618 81.6971 20.7553C81.2258 20.4488 80.8534 20.0039 80.5799 19.4205C80.3063 18.8372 80.1695 18.1286 80.1695 17.2947C80.1695 16.451 80.3079 15.7391 80.5848 15.1591C80.8649 14.5757 81.2423 14.1357 81.7169 13.8391C82.1915 13.5392 82.7205 13.3892 83.3038 13.3892C83.7487 13.3892 84.1146 13.465 84.4013 13.6167C84.688 13.765 84.9155 13.9446 85.0835 14.1555C85.2516 14.3631 85.3818 14.5592 85.4741 14.7438H85.5482V10.957H87.3428V21.0816H85.5828V19.8852H85.4741C85.3818 20.0698 85.2483 20.2659 85.0737 20.4735C84.899 20.6779 84.6683 20.8525 84.3815 20.9976C84.0948 21.1426 83.7339 21.2151 83.2989 21.2151ZM83.7982 19.7468C84.1772 19.7468 84.5002 19.6446 84.7671 19.4403C85.0341 19.2327 85.2368 18.9443 85.3752 18.5752C85.5136 18.206 85.5828 17.7759 85.5828 17.2849C85.5828 16.7938 85.5136 16.367 85.3752 16.0044C85.2401 15.6419 85.039 15.3601 84.7721 15.1591C84.5084 14.958 84.1838 14.8575 83.7982 14.8575C83.3994 14.8575 83.0665 14.9613 82.7996 15.169C82.5326 15.3766 82.3316 15.6633 82.1964 16.0292C82.0613 16.395 81.9937 16.8136 81.9937 17.2849C81.9937 17.7595 82.0613 18.183 82.1964 18.5554C82.3349 18.9245 82.5375 19.2162 82.8045 19.4304C83.0748 19.6413 83.406 19.7468 83.7982 19.7468ZM89.2498 21.0816V13.4881H90.9603V14.7784H91.0493C91.2075 14.3434 91.4695 14.0039 91.8354 13.76C92.2012 13.5128 92.6379 13.3892 93.1454 13.3892C93.6596 13.3892 94.093 13.5145 94.4456 13.765C94.8016 14.0121 95.052 14.35 95.1971 14.7784H95.2762C95.4442 14.3566 95.7277 14.0204 96.1265 13.7699C96.5286 13.5161 97.0048 13.3892 97.5552 13.3892C98.2539 13.3892 98.8241 13.6101 99.2657 14.0517C99.7073 14.4933 99.9282 15.1377 99.9282 15.9847V21.0816H98.1336V16.2615C98.1336 15.7902 98.0084 15.4458 97.7579 15.2283C97.5074 15.0075 97.2009 14.8971 96.8384 14.8971C96.4066 14.8971 96.0688 15.0322 95.8249 15.3024C95.5843 15.5694 95.464 15.9171 95.464 16.3456V21.0816H93.709V16.1874C93.709 15.7952 93.5904 15.4821 93.3531 15.2481C93.1191 15.0141 92.8126 14.8971 92.4335 14.8971C92.1765 14.8971 91.9425 14.963 91.7315 15.0948C91.5206 15.2233 91.3525 15.4063 91.2273 15.6436C91.102 15.8776 91.0394 16.1511 91.0394 16.4642V21.0816H89.2498ZM105.056 21.2299C104.314 21.2299 103.672 21.0668 103.128 20.7405C102.584 20.4142 102.162 19.9577 101.862 19.3711C101.566 18.7844 101.417 18.0989 101.417 17.3145C101.417 16.5301 101.566 15.843 101.862 15.253C102.162 14.6631 102.584 14.205 103.128 13.8787C103.672 13.5524 104.314 13.3892 105.056 13.3892C105.798 13.3892 106.44 13.5524 106.984 13.8787C107.528 14.205 107.948 14.6631 108.245 15.253C108.545 15.843 108.695 16.5301 108.695 17.3145C108.695 18.0989 108.545 18.7844 108.245 19.3711C107.948 19.9577 107.528 20.4142 106.984 20.7405C106.44 21.0668 105.798 21.2299 105.056 21.2299ZM105.066 19.7962C105.468 19.7962 105.804 19.6858 106.074 19.465C106.345 19.2409 106.546 18.941 106.678 18.5653C106.813 18.1896 106.88 17.771 106.88 17.3096C106.88 16.8449 106.813 16.4247 106.678 16.0489C106.546 15.6699 106.345 15.3684 106.074 15.1442C105.804 14.9201 105.468 14.8081 105.066 14.8081C104.654 14.8081 104.311 14.9201 104.038 15.1442C103.767 15.3684 103.565 15.6699 103.43 16.0489C103.298 16.4247 103.232 16.8449 103.232 17.3096C103.232 17.771 103.298 18.1896 103.43 18.5653C103.565 18.941 103.767 19.2409 104.038 19.465C104.311 19.6858 104.654 19.7962 105.066 19.7962ZM110.213 21.0816V13.4881H111.949V14.7537H112.028C112.166 14.3154 112.404 13.9775 112.74 13.7402C113.079 13.4997 113.466 13.3794 113.901 13.3794C114 13.3794 114.111 13.3843 114.233 13.3942C114.358 13.4008 114.462 13.4123 114.544 13.4288V15.075C114.468 15.0487 114.348 15.0256 114.183 15.0058C114.022 14.9828 113.865 14.9712 113.714 14.9712C113.387 14.9712 113.094 15.0421 112.834 15.1838C112.577 15.3222 112.374 15.515 112.226 15.7622C112.077 16.0094 112.003 16.2945 112.003 16.6175V21.0816H110.213ZM118.782 21.2299C118.021 21.2299 117.363 21.0717 116.81 20.7553C116.259 20.4356 115.836 19.9841 115.539 19.4008C115.242 18.8141 115.094 18.1236 115.094 17.3294C115.094 16.5483 115.242 15.8627 115.539 15.2728C115.839 14.6795 116.258 14.2181 116.795 13.8886C117.332 13.5557 117.963 13.3892 118.688 13.3892C119.156 13.3892 119.598 13.465 120.013 13.6167C120.432 13.765 120.801 13.9957 121.12 14.3088C121.443 14.6219 121.697 15.0207 121.882 15.5051C122.066 15.9863 122.159 16.5598 122.159 17.2255V17.7743H115.935V16.568H120.443C120.44 16.2253 120.366 15.9204 120.221 15.6534C120.076 15.3832 119.873 15.1706 119.613 15.0157C119.356 14.8608 119.056 14.7834 118.713 14.7834C118.347 14.7834 118.026 14.8723 117.749 15.0503C117.472 15.225 117.256 15.4557 117.101 15.7424C116.95 16.0259 116.872 16.3373 116.869 16.6768V17.7298C116.869 18.1714 116.95 18.5504 117.111 18.8668C117.273 19.1799 117.498 19.4205 117.788 19.5886C118.078 19.7534 118.418 19.8358 118.807 19.8358C119.067 19.8358 119.303 19.7995 119.514 19.727C119.725 19.6512 119.908 19.5408 120.063 19.3958C120.217 19.2508 120.334 19.0712 120.414 18.857L122.084 19.0448C121.979 19.4864 121.778 19.8721 121.481 20.2016C121.188 20.5279 120.812 20.7817 120.354 20.963C119.896 21.1409 119.372 21.2299 118.782 21.2299Z" fill="#4CAF4F"/>
<path d="M140.075 18.8659L142.367 16.5738C142.639 16.3019 142.639 15.8612 142.367 15.5894L140.075 13.2973M142.164 16.0816L132.419 16.0816" stroke="#4CAF4F" stroke-width="1.0441" stroke-linecap="round"/>
</svg>
